<?xml version="1.0" encoding="utf-8"?>
<!-- Generator: Adobe Illustrator 25.4.0, SVG Export Plug-In . SVG Version: 6.00 Build 0)  -->
<svg version="1.1" id="Layer_1" xmlns:lucid="lucid"
	 xmlns="http://www.w3.org/2000/svg" xmlns:xlink="http://www.w3.org/1999/xlink" x="0px" y="0px" viewBox="0 0 83 83"
	 style="enable-background:new 0 0 83 83;" xml:space="preserve">
<style type="text/css">
	.st0{stroke:#000000;stroke-miterlimit:10;}
</style>
<path lucid:page-tab-id="0_0" class="st0" d="M1.5,30.7c0-3.3,1.9-7.9,4.2-10.2L20.5,5.7c2.3-2.3,6.9-4.2,10.2-4.2h21.6
	c3.3,0,7.9,1.9,10.2,4.2l14.7,14.7c2.3,2.3,4.2,6.9,4.2,10.2v21.6c0,3.3-1.9,7.9-4.2,10.2L62.5,77.3c-2.3,2.3-6.9,4.2-10.2,4.2H30.7
	c-3.3,0-7.9-1.9-10.2-4.2L5.7,62.5c-2.3-2.3-4.2-6.9-4.2-10.2V30.7z"/>
</svg>
