<svg id="Layer_1" data-name="Layer 1" xmlns="http://www.w3.org/2000/svg" viewBox="0 0 102 103.32"><defs><style>.cls-1{fill:#f37335;}</style></defs><path class="cls-1" d="M33.89,43.54A16.79,16.79,0,0,0,49.68,60.21h2.2A16.79,16.79,0,0,0,67.67,43.54,17.33,17.33,0,0,0,51,26.44h0A17.13,17.13,0,0,0,33.89,43.54ZM21.61,85.21s-1.31-6.14-3.07-13.6l-1.31,14-11,14.47L1,73.81,16.35,58A52.54,52.54,0,0,1,15,47.93C15,24.68,30.39,15.47,41.35,7.58L50.56,1,61.09,7.58C71.61,15.47,87.4,24.68,87.4,47.93,87.4,57.14,80,85.21,80,85.21Zm62.72.44L87,56.7l14,17.11-5.7,26.31ZM29.51,90h42.1l-3.94,12.28H33.89Z"/></svg>