<?xml version="1.0" encoding="utf-8"?>
<!-- Generator: Adobe Illustrator 25.0.1, SVG Export Plug-In . SVG Version: 6.00 Build 0)  -->
<svg version="1.1" id="Layer_1" xmlns="http://www.w3.org/2000/svg" xmlns:xlink="http://www.w3.org/1999/xlink" x="0px" y="0px"
	 viewBox="0 0 198.2 58.7" style="enable-background:new 0 0 198.2 58.7;" xml:space="preserve">
<style type="text/css">
	.st0{fill:#4699FF;}
	.st1{fill:#F37335;}
</style>
<g id="Layer_x0020_1">
	<path class="st0" d="M69.6,21.5c0,1.7-0.3,3.4-1,4.9s-1.6,2.8-2.7,3.9c-1.1,1.2-2.5,2.1-4,2.7s-3.1,1-4.9,1c-1.8,0-3.4-0.3-4.9-1
		s-2.9-1.5-4-2.7c-1.1-1.1-2-2.4-2.7-3.9c-0.6-1.5-1-3.2-1-4.9c0-1.8,0.3-3.4,1-4.9s1.6-2.9,2.7-4s2.5-2,4-2.7c1.5-0.6,3.1-1,4.9-1
		c1.8,0,3.4,0.3,4.9,1s2.9,1.6,4,2.7s2,2.5,2.7,4C69.2,18.1,69.6,19.7,69.6,21.5z M76.7,26.9c0.5-1.8,0.7-3.6,0.7-5.4
		s-0.2-3.7-0.7-5.4c-0.5-1.8-1.2-3.4-2.1-4.9s-1.9-2.9-3.2-4.1c-1.2-1.3-2.6-2.3-4.1-3.2s-3.1-1.6-4.9-2.1C60.7,1.4,59,1.1,57,1.1
		c-1.8,0-3.7,0.2-5.3,0.7c-1.8,0.5-3.4,1.2-4.9,2.1s-2.9,1.9-4.2,3.2c-1.3,1.2-2.3,2.6-3.2,4.1s-1.6,3.1-2.1,4.9s-0.7,3.6-0.7,5.4
		s0.2,3.7,0.7,5.4c0.5,1.7,1.2,3.4,2.1,4.8c0.9,1.5,1.9,3,3.2,4.2c1.3,1.3,2.6,2.3,4.2,3.2s3.1,1.6,4.9,2.1c1.7,0.5,3.5,0.7,5.3,0.7
		c1.9,0,3.7-0.2,5.4-0.7c1.8-0.5,3.4-1.2,4.9-2.1c1.5-0.9,2.9-1.9,4.1-3.2c1.3-1.2,2.3-2.6,3.2-4.2C75.5,30.2,76.2,28.6,76.7,26.9z"
		/>
	<polygon class="st0" points="197.5,9.5 197.5,1.6 163.2,1.6 163.2,9.5 176.4,9.5 176.4,41 184.3,41 184.3,9.5 	"/>
	<path class="st0" d="M159.8,33.8c0.6-1.4,1-3,1-4.5c0-1.7-0.3-3.2-1-4.6c-0.6-1.4-1.4-2.7-2.6-3.8c-1-1.1-2.3-1.9-3.8-2.6
		c-1.4-0.6-3-0.9-4.5-0.9h-10.1c-0.6,0-1-0.2-1.5-0.3c-0.5-0.2-0.9-0.5-1.3-0.9c-0.3-0.3-0.6-0.7-0.8-1.2c-0.2-0.6-0.3-1-0.3-1.6
		s0.1-1,0.3-1.5s0.5-0.9,0.8-1.3c0.4-0.3,0.8-0.6,1.3-0.8s1-0.3,1.5-0.3h18.8V1.6h-18.8c-1.6,0-3.1,0.3-4.5,1
		c-1.4,0.6-2.7,1.4-3.8,2.6c-1.1,1-1.9,2.3-2.6,3.8c-0.6,1.4-1,3-1,4.5c0,1.7,0.3,3.2,1,4.6c0.6,1.4,1.4,2.6,2.6,3.8
		c1,1,2.3,1.9,3.8,2.6c1.4,0.6,3,0.9,4.5,0.9H149c0.6,0,1,0.2,1.5,0.3c0.5,0.2,0.9,0.5,1.3,0.9c0.3,0.3,0.6,0.7,0.8,1.2
		s0.3,1,0.3,1.6c0,0.5-0.1,1-0.3,1.5s-0.5,0.9-0.8,1.3c-0.4,0.3-0.8,0.6-1.3,0.8s-1,0.3-1.5,0.3h-25.4c3.9,1.3,6.9,4.2,8.5,7.9H149
		c1.6,0,3.1-0.3,4.5-1c1.4-0.6,2.7-1.5,3.8-2.6C158.4,36.5,159.2,35.2,159.8,33.8z"/>
	<path class="st0" d="M29.9,22.7c-0.9-0.9-1.4-1.2-2.3-1.5c0.6-0.4,1-0.8,1.6-1.4c0.5-0.6,1-1.3,1.3-2c0.4-0.7,0.6-1.4,0.9-2.2
		c0.2-0.7,0.3-1.5,0.3-2.2c0-1.6-0.3-3.1-1-4.5c-0.6-1.4-1.4-2.7-2.6-3.8c-1-1.1-2.3-1.9-3.8-2.6s-3-1-4.5-1h-19V41h19.7
		c1.6,0,3.1-0.3,4.5-1c1.4-0.6,2.7-1.5,3.8-2.6c1.1-1,1.9-2.3,2.6-3.8c0.6-1.4,1-3,1-4.5c0-0.8-0.2-1.5-0.3-2.3
		c-0.2-0.8-0.5-1.5-0.8-2.2C30.9,23.9,30.4,23.3,29.9,22.7z M23.8,13.4c0,0.6-0.1,1-0.3,1.6c-0.2,0.5-0.5,0.9-0.8,1.2
		c-0.4,0.4-0.8,0.6-1.3,0.9c-0.5,0.2-1,0.3-1.5,0.3H8.8V9.5h11.1c0.6,0,1,0.1,1.5,0.3s0.9,0.5,1.3,0.8c0.3,0.4,0.6,0.8,0.8,1.3
		C23.7,12.4,23.8,12.9,23.8,13.4z M24.5,29.2c0,0.5-0.1,1-0.3,1.5c-0.2,0.5-0.5,0.9-0.8,1.3c-0.4,0.3-0.8,0.6-1.3,0.8
		s-1,0.3-1.5,0.3H8.8v-7.9h11.8c0.6,0,1,0.2,1.5,0.3c0.5,0.2,0.9,0.5,1.3,0.9c0.3,0.3,0.6,0.7,0.8,1.2
		C24.4,28.1,24.5,28.7,24.5,29.2z"/>
	<path class="st0" d="M84.8,43c-0.8-0.7-1.9-1.1-3-1c-2.1,0.2-3.6,1.9-3.4,3.9c0,0.6,0.2,1.2,0.6,1.6c0-0.1-0.1-0.2-0.1-0.3
		c-0.2-2.2,1.5-4.2,3.8-4.5C83.5,42.7,84.2,42.8,84.8,43z"/>
	<path class="st0" d="M125.8,49.1c0.7-1.4,0.8-3.3,0.1-4.9c-1.3-3-4.7-4.4-7.6-3.1c-0.8,0.4-1.5,1-2.1,1.7c0.2-0.1,0.3-0.2,0.5-0.2
		c3.3-1.4,7.1,0.2,8.5,3.5C125.8,47,125.9,48,125.8,49.1z"/>
	<path class="st1" d="M99.5,19c0,1.6,1.3,3,2.9,3h0.4c1.6-0.1,2.9-1.4,2.9-3c0-1.7-1.4-3-3-3.1l0,0l0,0
		C100.9,15.9,99.5,17.3,99.5,19z M97.3,26.6c0,0-0.2-1.1-0.6-2.5l-0.2,2.6l-2,2.6l-1-4.8l2.8-2.9c-0.2-0.7-0.2-1.4-0.2-1.8
		c0-4.2,2.8-5.9,4.8-7.3l1.7-1.2l1.9,1.2c1.9,1.4,4.8,3.1,4.8,7.3c0,1.7-1.4,6.8-1.4,6.8S97.3,26.6,97.3,26.6z M108.7,26.7l-0.5-5.3
		l3.6,3.1l-1,4.8L108.7,26.7z M98.7,27.5h7.7l-0.7,2.2h-6.1L98.7,27.5z"/>
	<path class="st0" d="M134.2,56.7c-0.5-2.9-3-5.1-6.1-5.1c-1.6,0-3,0.6-4.1,1.5c-1.1-5.1-5.7-9-11.3-9c-1.6,0-3.1,0.3-4.5,0.9v-4
		c1.6-0.5,3.1-1.1,4.5-2c1.5-0.9,2.9-1.9,4.2-3.2c1.2-1.2,2.3-2.6,3.2-4.2c0.9-1.4,1.5-3.1,2-4.8c0.5-1.8,0.7-3.6,0.7-5.4
		s-0.2-3.7-0.7-5.4s-1.1-3.4-2-4.9s-2-2.9-3.2-4.1c-1.3-1.3-2.6-2.3-4.2-3.2c-1.5-0.9-3.1-1.6-4.9-2.1S104.3,1,102.4,1
		c-1.8,0-3.7,0.2-5.3,0.7c-1.8,0.5-3.4,1.2-4.9,2.1S89.3,5.7,88,7c-1,1.3-2.2,2.7-3,4.2c-0.9,1.5-1.6,3.1-2.1,4.9s-0.7,3.6-0.7,5.4
		s0.2,3.7,0.7,5.4c0.5,1.7,1.2,3.4,2.1,4.8c0.9,1.5,2,3,3.2,4.2c1.3,1.3,2.6,2.3,4.2,3.2c1.3,0.8,2.6,1.4,4.1,1.8v4.4
		c-1.8-0.9-3.7-1.4-5.7-1.4c-6.3,0-11.6,4.5-12.7,10.5c-0.4-0.1-0.8-0.2-1.3-0.2c-2.5,0-4.5,1.9-4.5,4.4c0.6-1.8,2.2-3,4.1-3
		c0.6,0,1.1,0.1,1.6,0.3c0.2,0.1,0.5,0.2,0.7,0.3l0,0c0.1-0.5,0.2-1,0.3-1.4c1.5-4.6,5.8-7.9,10.9-7.9c4.5,0,9.8,2.5,11.7,6.1
		l-1.4-19.6c-0.7-0.2-1.7-0.4-2.3-0.7c-1.5-0.6-2.9-1.5-4-2.7c-1.1-1.1-2.1-2.4-2.7-3.9s-1-3.2-1-4.9c0-1.8,0.3-3.4,1-4.9
		c0.6-1.5,1.6-2.9,2.7-4s2.5-2,4-2.7c1.5-0.6,3.1-1,4.9-1c1.7,0,3.4,0.3,4.9,1s2.9,1.6,4,2.7s2,2.5,2.6,4c0.7,1.5,1,3.1,1,4.9
		c0,1.7-0.3,3.4-1,4.9c-0.6,1.5-1.5,2.8-2.6,3.9c-1.1,1.2-2.5,2.1-4,2.7c-0.9,0.4-1.6,0.6-2.6,0.7l-1.4,18.7
		c1.7-3.3,6.2-4.8,10.1-4.8c4.4,0,8.1,2.8,9.5,6.7c0.1,0.2,0.1,0.4,0.2,0.6c0,0.1,0.1,0.2,0.1,0.3c0.1,0.3,0.2,0.6,0.2,0.9
		c0.1,0,0.1,0.1,0.1,0.1c0.2-0.3,0.3-0.6,0.6-0.9c1-1.4,2.7-2.3,4.5-2.3C131.3,52.9,133.4,54.5,134.2,56.7z"/>
</g>
</svg>
