<svg id="Layer_1" data-name="Layer 1" xmlns="http://www.w3.org/2000/svg" viewBox="0 0 102 103.32"><defs><style>.cls-1{fill:#f37335;}</style></defs><path class="cls-1" d="M33.91,42.81c0,8.64,7,16.19,15.64,16.19h2.16A16.49,16.49,0,0,0,67.35,42.81c0-9.16-7.55-16.18-16.18-16.72h0A16.93,16.93,0,0,0,33.91,42.81Zm-11.86,41S21,77.88,18.81,70.32l-1.08,14-10.79,14L1.55,72.48l15.1-15.64a35.12,35.12,0,0,1-1.08-9.71c0-22.65,15.11-31.82,25.89-39.38l9.17-6.47L60.88,7.75c10.25,7.56,25.89,16.73,25.89,39.38,0,9.17-7.55,36.68-7.55,36.68Zm61.49.54-2.7-28.59,19.42,16.72-5.4,25.89ZM29.6,88.66H71.13l-3.78,11.87H34.45Z"/></svg>