<?xml version="1.0" encoding="UTF-8" standalone="no"?>
<svg
   xmlns:dc="http://purl.org/dc/elements/1.1/"
   xmlns:cc="http://creativecommons.org/ns#"
   xmlns:rdf="http://www.w3.org/1999/02/22-rdf-syntax-ns#"
   xmlns:svg="http://www.w3.org/2000/svg"
   xmlns="http://www.w3.org/2000/svg"
   xmlns:sodipodi="http://sodipodi.sourceforge.net/DTD/sodipodi-0.dtd"
   xmlns:inkscape="http://www.inkscape.org/namespaces/inkscape"
   inkscape:export-ydpi="96"
   inkscape:export-xdpi="96"
   inkscape:export-filename="C:\Users\RedEase\OneDrive\Pictures\Marketing\Orderra\favicon.png"
   width="260mm"
   height="260mm"
   viewBox="0 0 260 260"
   version="1.1"
   id="svg8"
   inkscape:version="1.0 (4035a4fb49, 2020-05-01)"
   sodipodi:docname="favicon.svg">
  <defs
     id="defs2" />
  <sodipodi:namedview
     id="base"
     pagecolor="#ffffff"
     bordercolor="#666666"
     borderopacity="1.0"
     inkscape:pageopacity="0.0"
     inkscape:pageshadow="2"
     inkscape:zoom="0.35355339"
     inkscape:cx="-235.39"
     inkscape:cy="323.40454"
     inkscape:document-units="mm"
     inkscape:current-layer="g946"
     inkscape:document-rotation="0"
     showgrid="false"
     fit-margin-top="0"
     fit-margin-left="0"
     fit-margin-right="0"
     fit-margin-bottom="0"
     inkscape:window-width="1920"
     inkscape:window-height="1137"
     inkscape:window-x="1912"
     inkscape:window-y="5"
     inkscape:window-maximized="1" />
  <metadata
     id="metadata5">
    <rdf:RDF>
      <cc:Work
         rdf:about="">
        <dc:format>image/svg+xml</dc:format>
        <dc:type
           rdf:resource="http://purl.org/dc/dcmitype/StillImage" />
        <dc:title></dc:title>
      </cc:Work>
    </rdf:RDF>
  </metadata>
  <g
     inkscape:label="Layer 1"
     inkscape:groupmode="layer"
     id="layer1"
     transform="translate(-1.7166342,-2.8190544)">
    <g
       id="g946"
       transform="matrix(0.26458333,0,0,0.26458333,40.95633,36.127947)">
      <g
         id="Layer_x0020_1"
         transform="matrix(6.4037975,0,0,6.2096336,686.36806,526.35364)">
        <path
           id="path848"
           d="m -53.376,-100.317 c 41.727,0 75.2,33.473 75.2,75.201 0,41.726 -33.473,75.197 -75.2,75.197 -41.725,0 -75.198,-33.473 -75.198,-75.197 0,-11.007 2.296,-21.552 6.877,-30.725 -0.456,0.46 -0.456,0.915 -0.456,1.833 0,34.388 28.431,62.82 62.819,62.82 4.126,0 7.795,-0.456 11.459,-0.92 15.588,-2.75 27.512,-16.506 27.512,-33.013 0,-18.34 -14.673,-33.01 -33.014,-33.01 -18.34,0 -33.012,14.674 -33.012,33.016 0,7.793 2.75,15.129 7.334,21.091 -24.302,-6.881 -41.725,-25.678 -42.643,-52.274 11.464,-25.679 38.06,-44.019 68.322,-44.019 z"
           fill="#0094d9" />
      </g>
      <g
         id="g901">
        <g
           id="g899" />
      </g>
    </g>
  </g>
</svg>
