<?xml version="1.0" encoding="utf-8"?>
<!-- Generator: Adobe Illustrator 25.4.1, SVG Export Plug-In . SVG Version: 6.00 Build 0)  -->
<svg version="1.1" id="Layer_1" xmlns="http://www.w3.org/2000/svg" xmlns:xlink="http://www.w3.org/1999/xlink" x="0px" y="0px"
	 viewBox="0 0 417.6 97.7" style="enable-background:new 0 0 417.6 97.7;" xml:space="preserve">
<style type="text/css">
	.st0{fill:#0094D9;}
</style>
<path class="st0" d="M120.4,35.6h-13.8V93h13.8V61.3c0-7.3,6-13.3,13.3-13.3c2.3,0,4.1,0.5,5.5,1.4V33.8c-8.3,0-14.7,3.2-18.8,8.7
	L120.4,35.6L120.4,35.6z"/>
<path class="st0" d="M170.4,32.4c-7.8,0-14.2,3.2-19.7,8.7c-5.5,6-7.8,12.8-7.8,21.5c0,8.7,2.3,16,7.8,22c5.5,5.5,11.9,8.3,19.7,8.3
	c6.4,0,12.4-1.8,17.4-6v4.6h13.8V9h-13.8v29.8C182.8,34.7,176.8,32.4,170.4,32.4z M183.2,51.2c2.8,3.2,4.6,6.9,4.6,11.5
	c0,5-1.8,8.7-4.6,11.9c-3.2,3.2-6.9,4.6-11,4.6c-4.1,0-7.8-1.4-11-4.6c-2.8-3.2-4.1-6.9-4.1-11.9c0-4.6,1.4-8.3,4.1-11.5
	c3.2-3.2,6.9-5,11-5C176.3,46.2,180,48,183.2,51.2L183.2,51.2z"/>
<path class="st0" d="M270.8,67.7c0-1.8,0.5-3.7,0.5-5c0-8.3-3.2-15.6-8.7-21.5c-6-5.5-12.8-8.7-21.6-8.7c-8.3,0-15.6,3.2-21.5,8.7
	c-5.5,6-8.3,12.8-8.3,21.5c0,8.7,2.7,16,8.7,22c6,5.5,13.3,8.3,22,8.3c11.5,0,21.5-5.5,26.6-14.7l-13.3-4.1
	c-3.2,4.1-7.8,6.4-13.3,6.4c-7.8,0-14.7-5-16.5-12.8H270.8z M225.4,57.2c1.8-7.3,8.3-11.9,15.6-11.9c7.3,0,13.8,4.6,16.1,11.9H225.4
	z"/>
<path class="st0" d="M293.3,35.6h-13.8V93h13.8V61.3c0-7.3,5.5-13.3,13.3-13.3c1.8,0,3.7,0.5,5.5,1.4V33.8c-8.7,0-14.7,3.2-18.8,8.7
	V35.6L293.3,35.6z"/>
<path class="st0" d="M333.2,35.6h-13.8V93h13.8V61.3c0-7.3,6-13.3,13.3-13.3c1.8,0,3.7,0.5,5.5,1.4V33.8c-8.3,0-14.7,3.2-18.8,8.7
	V35.6z"/>
<path class="st0" d="M383.1,32.4c-7.8,0-14.2,3.2-19.7,8.7c-5.5,6-7.8,12.8-7.8,21.5c0,8.7,2.3,16,7.8,22c5.5,5.5,11.9,8.3,19.7,8.3
	c6.4,0,12.4-1.8,17.4-6v4.6h13.8V34.3h-13.8v4.6C395.5,34.7,389.6,32.4,383.1,32.4z M396,51.2c2.8,3.2,4.6,6.9,4.6,11.5
	c0,5-1.8,8.7-4.6,11.9c-3.2,3.2-6.9,4.6-11,4.6c-4.1,0-7.8-1.4-11-4.6c-2.8-3.2-4.6-6.9-4.6-11.9c0-4.6,1.8-8.3,4.6-11.5
	c3.2-3.2,6.9-5,11-5C389.1,46.2,392.8,48,396,51.2z"/>
<path class="st0" d="M48.8,3c25.2,0,45.5,20.3,45.5,45.5C94.3,73.7,74.1,94,48.8,94C23.6,94,3.3,73.7,3.3,48.5
	c0-6.7,1.4-13,4.2-18.6c-0.3,0.3-0.3,0.6-0.3,1.1c0,20.8,17.2,38,38,38c2.5,0,4.7-0.3,6.9-0.6c9.4-1.7,16.6-10,16.6-20
	c0-11.1-8.9-20-20-20c-11.1,0-20,8.9-20,20c0,4.7,1.7,9.2,4.4,12.8C18.6,57.1,8,45.7,7.5,29.6C14.4,14.1,30.5,3,48.8,3z"/>
<g id="Layer_x0020_1_00000086662423555655449100000005614987776432247218_">
	<g id="_755931716576_00000138559870180414958350000016514499208943412911_">
		<path d="M134-218.9c-11.5,0-21.1,4.1-28.9,11.5c-7.8,7.8-11.5,17.4-11.5,28.9c0,11.5,3.7,21.1,11.5,28.4
			c7.8,7.8,17.4,11.5,28.9,11.5c11.5,0,21.1-3.7,28.4-11.5c7.8-7.3,11.5-17,11.5-28.4c0-11.5-3.7-21.1-11.5-28.9
			C155.1-214.8,145.4-218.9,134-218.9z M109.2-178.6c0-7.3,2.3-13.8,6.9-18.8c4.6-4.6,10.5-7.3,17.9-7.3c6.9,0,12.8,2.8,17.4,7.3
			c5,5,7.3,11.5,7.3,18.8c0,7.3-2.3,13.3-7.3,18.3c-4.6,5-10.5,7.3-17.4,7.3c-7.3,0-13.3-2.3-17.9-7.3
			C111.5-165.3,109.2-171.2,109.2-178.6z"/>
		<path d="M197.2-197.4h-13.8v57.3h13.8v-31.6c0-7.3,6-13.3,13.3-13.3c2.3,0,4.1,0.5,5.5,1.4v-15.6c-8.3,0-14.7,3.2-18.8,8.7
			L197.2-197.4L197.2-197.4z"/>
		<path d="M247.2-199.2c-7.8,0-14.2,3.2-19.7,8.7c-5.5,6-7.8,12.8-7.8,21.5c0,8.7,2.3,16.1,7.8,22c5.5,5.5,11.9,8.3,19.7,8.3
			c6.4,0,12.4-1.8,17.4-6v4.6h13.8v-82.5h-13.8v29.8C259.6-196.9,253.6-199.2,247.2-199.2z M260.1-180.4c2.8,3.2,4.6,6.9,4.6,11.5
			c0,5-1.8,8.7-4.6,11.9c-3.2,3.2-6.9,4.6-11,4.6c-4.1,0-7.8-1.4-11-4.6c-2.8-3.2-4.1-6.9-4.1-11.9c0-4.6,1.4-8.3,4.1-11.5
			c3.2-3.2,6.9-5,11-5C253.2-185.4,256.9-183.6,260.1-180.4L260.1-180.4z"/>
		<path d="M347.6-163.9c0-1.8,0.5-3.7,0.5-5c0-8.3-3.2-15.6-8.7-21.6c-6-5.5-12.8-8.7-21.6-8.7c-8.3,0-15.6,3.2-21.5,8.7
			c-5.5,6-8.3,12.8-8.3,21.6c0,8.7,2.7,16.1,8.7,22c6,5.5,13.3,8.3,22,8.3c11.5,0,21.5-5.5,26.6-14.7l-13.3-4.1
			c-3.2,4.1-7.8,6.4-13.3,6.4c-7.8,0-14.7-5-16.5-12.8H347.6z M302.3-174.4c1.8-7.3,8.3-11.9,15.6-11.9c7.3,0,13.8,4.6,16.1,11.9
			H302.3z"/>
		<path d="M370.1-197.4h-13.8v57.3h13.8v-31.6c0-7.3,5.5-13.3,13.3-13.3c1.8,0,3.7,0.5,5.5,1.4v-15.6c-8.7,0-14.7,3.2-18.8,8.7
			L370.1-197.4L370.1-197.4z"/>
		<path d="M410-197.4h-13.8v57.3H410v-31.6c0-7.3,6-13.3,13.3-13.3c1.8,0,3.7,0.5,5.5,1.4v-15.6c-8.3,0-14.7,3.2-18.8,8.7V-197.4z"
			/>
		<path d="M460-199.2c-7.8,0-14.2,3.2-19.7,8.7c-5.5,6-7.8,12.8-7.8,21.5c0,8.7,2.3,16.1,7.8,22c5.5,5.5,11.9,8.3,19.7,8.3
			c6.4,0,12.4-1.8,17.4-6v4.6h13.8v-57.3h-13.8v4.6C472.4-196.9,466.4-199.2,460-199.2z M472.8-180.4c2.8,3.2,4.6,6.9,4.6,11.5
			c0,5-1.8,8.7-4.6,11.9c-3.2,3.2-6.9,4.6-11,4.6c-4.1,0-7.8-1.4-11-4.6c-2.8-3.2-4.6-6.9-4.6-11.9c0-4.6,1.8-8.3,4.6-11.5
			c3.2-3.2,6.9-5,11-5C465.9-185.4,469.6-183.6,472.8-180.4z"/>
	</g>
	<path class="st0" d="M-4.1-240.9c41.7,0,75.2,33.5,75.2,75.2c0,41.7-33.5,75.2-75.2,75.2c-41.7,0-75.2-33.5-75.2-75.2
		c0-11,2.3-21.6,6.9-30.7c-0.5,0.5-0.5,0.9-0.5,1.8c0,34.4,28.4,62.8,62.8,62.8c4.1,0,7.8-0.5,11.5-0.9c15.6-2.8,27.5-16.5,27.5-33
		c0-18.3-14.7-33-33-33c-18.3,0-33,14.7-33,33c0,7.8,2.8,15.1,7.3,21.1c-24.3-6.9-41.7-25.7-42.6-52.3
		C-60.9-222.6-34.3-240.9-4.1-240.9z"/>
</g>
<g>
	<g>
		<path class="st0" d="M120.4-110.2c0,0.8-0.1,1.4-0.3,1.9c-0.3,0.6-0.7,1-1.4,1.4c-0.5,0.3-1.1,0.5-1.8,0.6
			c-0.7,0.1-1.5,0.2-2.3,0.2h-12.7v-16.3h13c1.2,0,2,0.1,2.5,0.2c0.5,0.1,0.9,0.4,1.2,0.7c0.4,0.4,0.7,0.9,0.9,1.5
			c0.1,0.5,0.2,0.9,0.2,1.3v1.2c0,0.5-0.1,1-0.4,1.5c-0.1,0.2-0.3,0.4-0.6,0.6c-0.2,0.2-0.6,0.4-1.1,0.6c0.5,0.1,0.8,0.2,1.1,0.3
			c0.5,0.2,0.8,0.4,1,0.7c0.2,0.4,0.4,0.8,0.5,1.2c0.1,0.4,0.1,0.8,0.1,1.2L120.4-110.2L120.4-110.2z M117.6-117.4v-1
			c0-0.4,0-0.8-0.1-1c-0.1-0.3-0.2-0.5-0.5-0.8c-0.1-0.1-0.3-0.2-0.6-0.3c-0.3-0.1-0.6-0.1-0.9-0.1h-11.6v5.3h11.3
			c0.5,0,0.8,0,1.1-0.1c0.3-0.1,0.5-0.2,0.7-0.5c0.2-0.2,0.3-0.4,0.4-0.7C117.5-116.9,117.6-117.1,117.6-117.4z M118.3-110.3v-1.1
			c0-0.3,0-0.6-0.1-0.8c-0.1-0.3-0.3-0.5-0.5-0.7c-0.2-0.2-0.5-0.3-0.8-0.4c-0.4-0.1-0.8-0.1-1.3-0.1h-11.6v5.6h11.3
			c0.6,0,1.1,0,1.5-0.2c0.4-0.1,0.8-0.3,1-0.6c0.2-0.2,0.3-0.5,0.4-0.7S118.3-109.9,118.3-110.3z"/>
		<path class="st0" d="M136.7-106.1h-1.9v-1.9c-0.2,0.3-0.4,0.6-0.6,0.7c-0.2,0.2-0.5,0.4-0.8,0.6c-0.5,0.3-1.1,0.5-1.8,0.6
			c-0.3,0-0.9,0.1-1.6,0.1h-1.3c-0.8,0-1.6-0.1-2.5-0.3c-1-0.2-1.8-0.5-2.3-0.9c-0.4-0.3-0.7-0.7-0.9-1.1c-0.2-0.4-0.3-0.9-0.3-1.6
			v-7.8h2v7.3c0,0.5,0.1,0.9,0.2,1.2c0.1,0.3,0.3,0.6,0.6,0.9c0.3,0.3,0.9,0.5,1.8,0.6c0.6,0.1,1.2,0.1,1.9,0.1h0.6
			c0.9,0,1.6-0.1,2.3-0.2c1-0.2,1.7-0.5,2.1-1c0.2-0.3,0.4-0.5,0.5-0.8c0.1-0.3,0.1-0.6,0.1-1.1v-7h1.9L136.7-106.1L136.7-106.1z"/>
		<path class="st0" d="M153.5-109.1c0,0.5,0,0.8-0.1,1c-0.1,0.5-0.4,0.8-0.8,1.2c-0.4,0.3-0.9,0.5-1.5,0.6c-0.6,0.1-1.3,0.2-2,0.2
			c-0.2,0-0.5,0-0.9,0c-0.4,0-0.7,0-0.9,0h-2.7c-0.3,0-0.5,0-0.8,0c-0.3,0-0.6,0-0.8,0c-0.5,0-1,0-1.4-0.1c-0.4-0.1-0.8-0.2-1.2-0.5
			c-0.4-0.3-0.7-0.6-1-1.1c-0.2-0.5-0.4-1-0.4-1.4v-0.9h1.9v0.5c0,0.3,0,0.6,0,0.7c0,0.2,0.1,0.3,0.3,0.5c0.2,0.3,0.6,0.5,1.3,0.5
			c0.6,0,1.2,0.1,1.7,0.1h3.7c0.2,0,0.4,0,0.7,0c0.2,0,0.4,0,0.6,0c0.4,0,0.7,0,1-0.1c0.3,0,0.6-0.1,0.8-0.2
			c0.2-0.1,0.4-0.2,0.5-0.5c0.1-0.2,0.2-0.5,0.2-0.7v-0.5c0-0.2,0-0.4-0.1-0.5c0-0.1-0.1-0.3-0.3-0.5c-0.2-0.2-0.4-0.4-0.7-0.5
			s-0.7-0.1-1.1-0.1c-0.2,0-0.3,0-0.4,0H143c-0.2,0-0.3,0-0.4,0c-0.6,0-1.1,0-1.4-0.1s-0.7-0.2-1-0.4c-0.4-0.3-0.7-0.6-0.8-1
			c-0.1-0.4-0.2-0.9-0.2-1.4v-0.4c0-0.6,0.1-1.1,0.3-1.5c0.2-0.4,0.6-0.8,1-1.1c0.3-0.2,0.9-0.4,1.7-0.5c0.8-0.1,1.4-0.2,1.9-0.2
			h3.6c0.8,0,1.5,0,2,0.1c1.1,0.1,2,0.4,2.4,0.8c0.6,0.5,0.8,1.1,0.8,1.9v0.7h-1.7v-0.5c0-0.5-0.2-0.8-0.5-1
			c-0.3-0.2-0.8-0.3-1.4-0.4c-0.6-0.1-1.2-0.1-2-0.1h-3.4c-0.6,0-1.1,0-1.5,0.1c-0.4,0.1-0.7,0.2-0.9,0.5c-0.2,0.3-0.4,0.5-0.4,0.6
			c-0.1,0.2-0.1,0.4-0.1,0.6v0.4c0,0.4,0.1,0.7,0.3,0.9c0.2,0.2,0.3,0.3,0.5,0.3c0.2,0,0.4,0,0.7,0h6.6c0.6,0,1.2,0.1,1.7,0.2
			c0.6,0.1,1,0.2,1.3,0.4c0.9,0.5,1.4,1.3,1.4,2.5L153.5-109.1L153.5-109.1z"/>
		<path class="st0" d="M158.3-120.1h-1.8v-2.3h1.8C158.3-122.4,158.3-120.1,158.3-120.1z M158.3-106.1h-1.8v-11.7h1.8
			C158.3-117.8,158.3-106.1,158.3-106.1z"/>
		<path class="st0" d="M175.2-106.1h-2v-7.1c0-0.5,0-0.9-0.1-1.2c-0.1-0.4-0.4-0.7-0.7-1c-0.3-0.3-0.8-0.5-1.5-0.6
			c-0.7-0.1-1.4-0.2-2.2-0.2h-0.6c-1,0-1.9,0.1-2.5,0.2c-0.9,0.2-1.5,0.6-2,1.1c-0.2,0.3-0.4,0.7-0.5,1.1c-0.1,0.5-0.2,1-0.2,1.5
			v6.1h-1.9v-11.7h1.9v2.1c0.3-0.3,0.5-0.6,0.6-0.7c0.2-0.3,0.5-0.5,0.7-0.7c0.4-0.2,0.9-0.4,1.3-0.5c0.5-0.1,1-0.2,1.7-0.2h2.2
			c1,0,1.7,0.1,2.3,0.2c1,0.2,1.8,0.5,2.3,1.1c0.4,0.4,0.7,0.8,0.9,1.3s0.3,0.9,0.3,1.5L175.2-106.1L175.2-106.1z"/>
		<path class="st0" d="M191.9-111.5h-12.5v0.6c0,0.6,0,1,0.1,1.3c0.1,0.3,0.2,0.6,0.5,0.9c0.3,0.3,0.7,0.5,1.4,0.7s1.3,0.3,1.9,0.3
			h2.5c0.2,0,0.4,0,0.5,0c0.8,0,1.4,0,1.9-0.1c0.5,0,0.8-0.2,1.1-0.3c0.3-0.2,0.5-0.4,0.6-0.6c0.2-0.2,0.2-0.4,0.2-0.7v-0.4h1.8v0.5
			c0,0.4-0.1,0.8-0.2,1.1c-0.1,0.3-0.3,0.6-0.6,0.9c-0.4,0.4-1.1,0.8-2,0.9c-0.6,0.1-1.3,0.2-2.2,0.2c-0.1,0-0.2,0-0.4,0
			s-0.2,0-0.3,0h-2.3c-1.2,0-2.1,0-2.5-0.1c-0.8-0.1-1.5-0.4-2.1-0.9c-0.7-0.6-1.2-1.3-1.4-2.1c-0.2-0.5-0.2-1.4-0.2-2.5v-1
			c0-0.8,0.1-1.3,0.2-1.8c0.2-0.6,0.5-1.2,1-1.9c0.4-0.5,1.2-0.9,2.3-1.1c0.9-0.2,2-0.3,3.3-0.3h1.3c1.4,0,2.4,0.1,3.1,0.3
			c0.9,0.2,1.6,0.6,2.1,1.2c0.4,0.5,0.8,1.1,0.9,1.5c0.1,0.4,0.2,0.9,0.2,1.5c0,0.2,0,0.3,0,0.5c0,0.1,0,0.3,0,0.4L191.9-111.5
			L191.9-111.5z M190.1-113.2v-0.8c0-0.7-0.3-1.2-0.8-1.6c-0.3-0.2-0.7-0.4-1.2-0.5c-0.5-0.1-1.4-0.2-2.8-0.2h-1.2
			c-1.2,0-1.9,0-2.4,0.1c-0.9,0.2-1.6,0.6-2,1.2c-0.1,0.1-0.1,0.3-0.2,0.5c-0.1,0.2-0.1,0.5-0.1,0.7v0.5H190.1z"/>
		<path class="st0" d="M208.8-109.1c0,0.5,0,0.8-0.1,1c-0.1,0.5-0.4,0.8-0.7,1.2c-0.4,0.3-0.8,0.5-1.4,0.6c-0.6,0.1-1.2,0.2-1.9,0.2
			c-0.2,0-0.5,0-0.9,0c-0.4,0-0.7,0-0.8,0h-2.5c-0.3,0-0.5,0-0.8,0c-0.3,0-0.5,0-0.8,0c-0.5,0-0.9,0-1.3-0.1
			c-0.4-0.1-0.7-0.2-1.1-0.5c-0.4-0.3-0.7-0.6-0.9-1.1c-0.2-0.5-0.3-1-0.3-1.4v-0.9h1.7v0.5c0,0.3,0,0.6,0,0.7
			c0,0.2,0.1,0.3,0.2,0.5c0.2,0.3,0.6,0.5,1.2,0.5c0.6,0,1.1,0.1,1.6,0.1h3.5c0.2,0,0.4,0,0.6,0c0.2,0,0.4,0,0.6,0
			c0.3,0,0.7,0,0.9-0.1c0.3,0,0.5-0.1,0.7-0.2c0.2-0.1,0.4-0.2,0.5-0.5c0.1-0.2,0.2-0.5,0.2-0.7v-0.5c0-0.2,0-0.4,0-0.5
			c0-0.1-0.1-0.3-0.2-0.5c-0.2-0.2-0.4-0.4-0.7-0.5c-0.3-0.1-0.7-0.1-1.1-0.1c-0.2,0-0.3,0-0.4,0H199c-0.2,0-0.3,0-0.4,0
			c-0.6,0-1,0-1.3-0.1s-0.6-0.2-0.9-0.4c-0.4-0.3-0.6-0.6-0.8-1c-0.1-0.4-0.2-0.9-0.2-1.4v-0.4c0-0.6,0.1-1.1,0.3-1.5
			c0.2-0.4,0.5-0.8,1-1.1c0.3-0.2,0.8-0.4,1.6-0.5c0.7-0.1,1.3-0.2,1.8-0.2h3.4c0.7,0,1.4,0,1.9,0.1c1.1,0.1,1.8,0.4,2.3,0.8
			c0.5,0.5,0.8,1.1,0.8,1.9v0.7h-1.6v-0.5c0-0.5-0.2-0.8-0.5-1c-0.3-0.2-0.7-0.3-1.3-0.4c-0.6-0.1-1.2-0.1-1.8-0.1h-3.2
			c-0.5,0-1,0-1.4,0.1c-0.4,0.1-0.7,0.2-0.8,0.5c-0.2,0.3-0.3,0.5-0.4,0.6c-0.1,0.2-0.1,0.4-0.1,0.6v0.4c0,0.4,0.1,0.7,0.3,0.9
			c0.1,0.2,0.3,0.3,0.4,0.3c0.1,0,0.4,0,0.7,0h6.1c0.6,0,1.1,0.1,1.6,0.2c0.5,0.1,0.9,0.2,1.2,0.4c0.9,0.5,1.3,1.3,1.3,2.5
			L208.8-109.1L208.8-109.1z"/>
		<path class="st0" d="M225.8-109.1c0,0.5,0,0.8-0.1,1c-0.1,0.5-0.4,0.8-0.8,1.2c-0.4,0.3-0.9,0.5-1.5,0.6c-0.6,0.1-1.3,0.2-2,0.2
			c-0.2,0-0.5,0-0.9,0c-0.4,0-0.7,0-0.9,0h-2.7c-0.3,0-0.5,0-0.8,0c-0.3,0-0.6,0-0.8,0c-0.5,0-1,0-1.4-0.1c-0.4-0.1-0.8-0.2-1.2-0.5
			c-0.4-0.3-0.7-0.6-1-1.1c-0.2-0.5-0.4-1-0.4-1.4v-0.9h1.9v0.5c0,0.3,0,0.6,0,0.7c0,0.2,0.1,0.3,0.3,0.5c0.2,0.3,0.6,0.5,1.3,0.5
			c0.6,0,1.2,0.1,1.7,0.1h3.7c0.2,0,0.4,0,0.7,0s0.4,0,0.6,0c0.4,0,0.7,0,1-0.1c0.3,0,0.6-0.1,0.8-0.2c0.2-0.1,0.4-0.2,0.5-0.5
			c0.1-0.2,0.2-0.5,0.2-0.7v-0.5c0-0.2,0-0.4-0.1-0.5c0-0.1-0.1-0.3-0.3-0.5c-0.2-0.2-0.4-0.4-0.7-0.5c-0.3-0.1-0.7-0.1-1.1-0.1
			c-0.2,0-0.3,0-0.4,0h-6.1c-0.2,0-0.3,0-0.4,0c-0.6,0-1.1,0-1.4-0.1s-0.7-0.2-1-0.4c-0.4-0.3-0.7-0.6-0.8-1
			c-0.1-0.4-0.2-0.9-0.2-1.4v-0.4c0-0.6,0.1-1.1,0.3-1.5c0.2-0.4,0.6-0.8,1-1.1c0.3-0.2,0.9-0.4,1.7-0.5c0.8-0.1,1.4-0.2,1.9-0.2
			h3.6c0.8,0,1.5,0,2,0.1c1.1,0.1,2,0.4,2.4,0.8c0.6,0.5,0.8,1.1,0.8,1.9v0.7h-1.7v-0.5c0-0.5-0.2-0.8-0.5-1
			c-0.3-0.2-0.8-0.3-1.4-0.4c-0.6-0.1-1.2-0.1-2-0.1h-3.4c-0.6,0-1.1,0-1.5,0.1c-0.4,0.1-0.7,0.2-0.9,0.5c-0.2,0.3-0.4,0.5-0.4,0.6
			c-0.1,0.2-0.1,0.4-0.1,0.6v0.4c0,0.4,0.1,0.7,0.3,0.9c0.2,0.2,0.3,0.3,0.5,0.3c0.2,0,0.4,0,0.7,0h6.6c0.6,0,1.2,0.1,1.7,0.2
			c0.6,0.1,1,0.2,1.3,0.4c0.9,0.5,1.4,1.3,1.4,2.5L225.8-109.1L225.8-109.1z"/>
		<path class="st0" d="M234.3-112.3h-6.1v-1.6h6.1V-112.3z"/>
		<path class="st0" d="M256.7-111c0,0.7-0.1,1.3-0.2,1.8c-0.1,0.5-0.4,1-0.7,1.4c-0.6,0.7-1.5,1.2-2.9,1.5c-0.8,0.2-2,0.3-3.4,0.3
			h-0.9h-3.9c-0.2,0-0.3,0-0.5,0c-1.2,0-2.2-0.1-3-0.2c-1.4-0.2-2.4-0.6-3-1.1c-0.5-0.5-0.9-1.2-1.1-2.1c-0.2-0.9-0.4-1.9-0.4-3
			v-4.4c0-0.6,0-1,0.1-1.3c0.2-1.4,0.7-2.4,1.5-3.2c0.4-0.4,1.3-0.7,2.4-0.8c0.8-0.1,2-0.2,3.5-0.2h1h2.2c1.5,0,2.6,0,3.3,0
			c0.7,0,1.4,0.1,2.2,0.3c0.8,0.2,1.4,0.4,1.9,0.8c0.6,0.4,1,0.9,1.2,1.4c0.2,0.4,0.3,1,0.3,1.7v0.8h-2.1v-0.8c0-0.4,0-0.7-0.1-0.9
			s-0.2-0.5-0.4-0.7c-0.4-0.3-1.1-0.6-2.2-0.7c-0.7-0.1-1.7-0.1-2.8-0.1c-0.2,0-0.4,0-0.5,0c-0.1,0-0.2,0-0.3,0h-3.1
			c-1.3,0-2.2,0-2.8,0.1c-1.2,0.1-2,0.3-2.4,0.7s-0.6,1-0.8,1.8c-0.1,0.5-0.1,1.3-0.1,2.4v3.3c0,0.7,0.1,1.3,0.2,2
			c0.1,0.7,0.3,1.1,0.5,1.3c0.3,0.4,0.8,0.7,1.4,0.9c0.6,0.2,1.6,0.3,2.9,0.3h5.2c0.2,0,0.5,0,0.7,0c0.2,0,0.5,0,0.7,0
			c0.7,0,1.3,0,1.8-0.1c0.5-0.1,1-0.3,1.4-0.6c0.3-0.2,0.5-0.6,0.7-1.1s0.2-1.1,0.2-1.7v-1H246v-1.9h10.7L256.7-111L256.7-111z"/>
		<path class="st0" d="M271.2-112.4h-1.8v-1.6c0-0.7-0.2-1.2-0.7-1.6c-0.3-0.2-0.6-0.4-0.8-0.5c-0.2-0.1-0.5-0.1-0.7-0.1h-2.4
			c-0.6,0-1,0.1-1.5,0.2s-0.8,0.4-1.2,0.7c-0.3,0.3-0.6,0.6-0.7,0.9c-0.1,0.3-0.2,0.8-0.2,1.2v7h-1.9v-11.7h1.8v1.9
			c0.2-0.3,0.4-0.5,0.5-0.6c0.2-0.2,0.4-0.4,0.6-0.6c0.4-0.3,0.9-0.5,1.2-0.6c0.4-0.1,0.8-0.2,1.3-0.2h1.9c0.7,0,1.2,0,1.6,0.1
			c0.6,0.1,1.2,0.4,1.7,0.8c0.5,0.4,0.8,0.8,1,1.2c0.1,0.3,0.2,0.7,0.2,1.2c0,0.1,0,0.3,0,0.4c0,0.1,0,0.2,0,0.3V-112.4z"/>
		<path class="st0" d="M287.5-106.1h-1.9v-1.1c-0.2,0.2-0.4,0.3-0.5,0.4c-0.1,0.1-0.2,0.1-0.3,0.2c-0.4,0.2-0.7,0.4-1.1,0.4
			c-0.3,0.1-0.7,0.1-1.1,0.1c-0.1,0-0.3,0-0.4,0c-0.2,0-0.3,0-0.5,0h-3.2c-0.2,0-0.4,0-0.6,0c-0.9,0-1.6,0-2.1-0.1
			c-0.8-0.1-1.4-0.4-1.7-0.8c-0.3-0.4-0.5-0.7-0.6-1c-0.1-0.3-0.2-0.7-0.2-1.3v-0.6c0-0.7,0.1-1.2,0.3-1.6c0.1-0.3,0.4-0.6,0.6-0.9
			c0.5-0.4,1.5-0.7,2.9-0.7c0.4,0,1.2,0,2.3,0h1.7c1.2,0,1.9,0,2.3,0.1c0.4,0,0.7,0.2,1.1,0.3c0.1,0.1,0.3,0.1,0.4,0.3
			c0.1,0.1,0.3,0.3,0.6,0.6c0-0.1,0-0.3,0-0.4s0-0.3,0-0.5c0-0.6,0-1.1-0.1-1.5c-0.1-0.6-0.2-1-0.4-1.2c-0.2-0.3-0.5-0.4-1-0.5
			c-0.5-0.1-1-0.1-1.6-0.1c-0.2,0-0.3,0-0.4,0h-2.9c-1,0-1.5,0-1.7,0c-0.8,0.1-1.3,0.2-1.6,0.5c-0.1,0.1-0.2,0.3-0.3,0.5
			c-0.1,0.2-0.1,0.4-0.1,0.5v0.7h-1.9v-0.5c0-0.6,0.1-1.1,0.3-1.5c0.2-0.4,0.6-0.8,1-1.1c0.2-0.2,0.8-0.3,1.7-0.4
			c0.9-0.1,1.9-0.2,3.1-0.2h3.3c0.8,0,1.4,0.1,2.1,0.3c0.6,0.2,1.1,0.5,1.5,0.9c0.3,0.4,0.6,0.9,0.7,1.6c0.1,0.4,0.1,0.9,0.1,1.5
			c0,0.2,0,0.3,0,0.4V-106.1z M285.5-109.5v-0.4c0-0.2-0.1-0.4-0.2-0.7c-0.2-0.3-0.4-0.5-0.7-0.6c-0.3-0.1-0.6-0.2-1-0.2
			c-0.4,0-0.9,0-1.5,0c-0.2,0-0.3,0-0.4,0h-3.2c-0.6,0-1.1,0-1.6,0.1c-0.5,0.1-0.8,0.1-1,0.2c-0.3,0.1-0.5,0.3-0.6,0.6
			c-0.1,0.3-0.2,0.6-0.2,1v0.2c0,0.3,0,0.6,0.1,0.8c0.1,0.2,0.3,0.4,0.6,0.6c0.2,0.1,0.4,0.2,0.8,0.2c0.4,0,1,0.1,1.8,0.1h3.4
			c0.7,0,1.4,0,1.9-0.1c0.5-0.1,1-0.3,1.2-0.5c0.2-0.2,0.3-0.3,0.4-0.5C285.5-109,285.5-109.2,285.5-109.5z"/>
		<path class="st0" d="M304.1-106.1h-1.7v-1.4l-1,0.8c-0.4,0.3-1,0.5-1.7,0.6c-0.5,0.1-1.2,0.1-2.2,0.1h-1.7c-1.1,0-1.9,0-2.4-0.1
			c-1-0.1-1.8-0.4-2.4-0.9c-0.6-0.4-1-1-1.2-1.8c-0.1-0.5-0.2-1.3-0.2-2.3v-2c0-0.7,0.1-1.4,0.2-1.9c0.2-0.5,0.5-1,0.9-1.6
			c0.5-0.5,1.2-0.8,2.3-1c0.6-0.1,1.5-0.2,2.6-0.2h1.3c1.1,0,1.9,0,2.5,0.1c0.6,0.1,1.1,0.2,1.5,0.5c0.2,0.1,0.4,0.3,0.6,0.6
			c0.3,0.5,0.5,0.8,0.5,0.8v-6.6h1.9L304.1-106.1L304.1-106.1z M302.4-111.4v-1c0-0.8-0.1-1.4-0.2-1.9c-0.1-0.5-0.4-0.9-0.8-1.2
			c-0.3-0.3-0.8-0.4-1.6-0.6c-0.8-0.1-1.6-0.2-2.5-0.2H296c-1,0-1.9,0.1-2.4,0.3s-1,0.4-1.2,0.7c-0.4,0.5-0.6,1-0.8,1.5
			c-0.1,0.3-0.1,0.8-0.1,1.6v1.1c0,0.6,0,1.1,0.1,1.5c0.1,0.4,0.3,0.7,0.5,1c0.3,0.3,0.8,0.6,1.4,0.7c0.5,0.1,1,0.2,1.6,0.2
			c0.2,0,0.4,0,0.5,0c0.2,0,0.3,0,0.5,0h1.5c0.7,0,1.3-0.1,2-0.2c0.6-0.1,1.1-0.3,1.4-0.4c0.5-0.3,0.8-0.7,1-1.3
			C302.3-110.1,302.4-110.7,302.4-111.4z"/>
		<path class="st0" d="M320.9-111.5h-12.5v0.6c0,0.6,0,1,0.1,1.3c0.1,0.3,0.2,0.6,0.5,0.9c0.3,0.3,0.7,0.5,1.4,0.7s1.3,0.3,1.9,0.3
			h2.5c0.2,0,0.4,0,0.5,0c0.8,0,1.4,0,1.9-0.1c0.5,0,0.8-0.2,1.1-0.3c0.3-0.2,0.5-0.4,0.6-0.6c0.2-0.2,0.2-0.4,0.2-0.7v-0.4h1.8v0.5
			c0,0.4-0.1,0.8-0.2,1.1c-0.1,0.3-0.3,0.6-0.6,0.9c-0.5,0.4-1.1,0.8-2,0.9c-0.6,0.1-1.3,0.2-2.2,0.2c-0.1,0-0.2,0-0.4,0
			s-0.2,0-0.3,0h-2.3c-1.2,0-2.1,0-2.5-0.1c-0.8-0.1-1.5-0.4-2.1-0.9c-0.7-0.6-1.2-1.3-1.4-2.1c-0.2-0.5-0.2-1.4-0.2-2.5v-1
			c0-0.8,0.1-1.3,0.2-1.8c0.2-0.6,0.5-1.2,1-1.9c0.4-0.5,1.2-0.9,2.3-1.1c0.9-0.2,2-0.3,3.3-0.3h1.3c1.4,0,2.4,0.1,3.1,0.3
			c0.9,0.2,1.6,0.6,2.1,1.2c0.5,0.5,0.8,1.1,0.9,1.5c0.1,0.4,0.2,0.9,0.2,1.5c0,0.2,0,0.3,0,0.5c0,0.1,0,0.3,0,0.4L320.9-111.5
			L320.9-111.5z M319-113.2v-0.8c0-0.7-0.3-1.2-0.8-1.6c-0.3-0.2-0.7-0.4-1.2-0.5c-0.5-0.1-1.4-0.2-2.8-0.2H313
			c-1.2,0-1.9,0-2.4,0.1c-0.9,0.2-1.6,0.6-2,1.2c-0.1,0.1-0.1,0.3-0.2,0.5c-0.1,0.2-0.1,0.5-0.1,0.7v0.5H319z"/>
		<path class="st0" d="M346.2-120.6h-8v14.5h-1.9v-14.5h-8.3v-1.8h18.1L346.2-120.6L346.2-120.6z"/>
		<path class="st0" d="M362.5-111.5H350v0.6c0,0.6,0,1,0.1,1.3c0.1,0.3,0.2,0.6,0.5,0.9c0.3,0.3,0.7,0.5,1.4,0.7s1.3,0.3,1.9,0.3
			h2.5c0.2,0,0.4,0,0.5,0c0.8,0,1.4,0,1.9-0.1c0.5,0,0.8-0.2,1.1-0.3c0.3-0.2,0.5-0.4,0.6-0.6c0.2-0.2,0.2-0.4,0.2-0.7v-0.4h1.8v0.5
			c0,0.4-0.1,0.8-0.2,1.1c-0.1,0.3-0.3,0.6-0.6,0.9c-0.5,0.4-1.1,0.8-2,0.9c-0.6,0.1-1.3,0.2-2.2,0.2c-0.1,0-0.2,0-0.4,0
			s-0.2,0-0.3,0h-2.3c-1.2,0-2.1,0-2.5-0.1c-0.8-0.1-1.5-0.4-2.1-0.9c-0.7-0.6-1.2-1.3-1.4-2.1c-0.2-0.5-0.2-1.4-0.2-2.5v-1
			c0-0.8,0.1-1.3,0.2-1.8c0.2-0.6,0.5-1.2,1-1.9c0.4-0.5,1.2-0.9,2.3-1.1c0.9-0.2,2-0.3,3.3-0.3h1.3c1.4,0,2.4,0.1,3.1,0.3
			c0.9,0.2,1.6,0.6,2.1,1.2c0.5,0.5,0.8,1.1,0.9,1.5c0.1,0.4,0.2,0.9,0.2,1.5c0,0.2,0,0.3,0,0.5c0,0.1,0,0.3,0,0.4L362.5-111.5
			L362.5-111.5z M360.6-113.2v-0.8c0-0.7-0.3-1.2-0.8-1.6c-0.3-0.2-0.7-0.4-1.2-0.5c-0.5-0.1-1.4-0.2-2.8-0.2h-1.2
			c-1.2,0-1.9,0-2.4,0.1c-0.9,0.2-1.6,0.6-2,1.2c-0.1,0.1-0.1,0.3-0.2,0.5c-0.1,0.2-0.1,0.5-0.1,0.7v0.5H360.6z"/>
		<path class="st0" d="M378.6-109.8c0,0.5,0,1-0.1,1.3s-0.3,0.7-0.6,1c-0.3,0.4-0.9,0.7-1.8,0.9c-0.9,0.3-1.6,0.4-2.3,0.4h-3.5
			c-1.1,0-1.8-0.1-2.4-0.2c-0.5-0.1-1-0.3-1.4-0.6c-0.6-0.4-1-0.9-1.3-1.6c-0.2-0.5-0.3-1.1-0.3-1.6v-3.3c0-0.4,0-0.8,0.1-1.2
			c0.2-0.7,0.5-1.3,1.1-1.8c0.5-0.5,1.1-0.8,2-1c0.9-0.2,1.9-0.3,3-0.3h1.8c0.9,0,1.8,0.1,2.5,0.3c1.1,0.2,1.8,0.6,2.2,1.2
			c0.3,0.3,0.5,0.7,0.6,1c0.1,0.3,0.2,0.7,0.2,1.1v0.7h-1.8v-0.6c0-0.2-0.1-0.5-0.2-0.8c-0.1-0.3-0.3-0.5-0.6-0.6
			c-0.4-0.2-0.9-0.4-1.5-0.5c-0.6-0.1-1.3-0.1-2.1-0.1h-1.2c-0.7,0-1.3,0-1.8,0.1c-0.8,0.1-1.4,0.4-1.8,0.8
			c-0.3,0.3-0.5,0.8-0.6,1.4c-0.1,0.4-0.1,0.8-0.1,1.2v1.1c0,0.5,0,1,0.1,1.4c0.1,0.8,0.4,1.3,0.7,1.6c0.4,0.3,0.9,0.5,1.6,0.6
			c0.5,0.1,1.2,0.1,2.1,0.1h1.5c0.9,0,1.7-0.1,2.3-0.2c0.6-0.1,1-0.3,1.3-0.5c0.4-0.4,0.6-0.9,0.6-1.5v-0.6h1.8L378.6-109.8
			L378.6-109.8z"/>
		<path class="st0" d="M394.7-106.1h-1.8v-7.4c0-0.7-0.3-1.4-0.9-1.9c-0.3-0.2-0.6-0.4-1-0.5c-0.4-0.1-1-0.2-1.8-0.2
			c-0.2,0-0.3,0-0.4,0h-1.7c-0.7,0-1.4,0.1-1.9,0.2c-0.7,0.2-1.2,0.5-1.7,1c-0.3,0.3-0.4,0.6-0.5,1c-0.1,0.4-0.1,0.9-0.1,1.5v6.3
			h-1.9v-16.3h1.7v6.9c0.2-0.3,0.5-0.6,0.7-0.8c0.3-0.3,0.6-0.6,1-0.8c0.5-0.3,1-0.4,1.6-0.5c0.5-0.1,1.1-0.2,1.6-0.2h1.4
			c1.1,0,2.1,0.1,2.8,0.3c1,0.2,1.7,0.7,2.2,1.3c0.3,0.3,0.5,0.7,0.6,1c0.1,0.3,0.2,0.7,0.2,1.1V-106.1z"/>
		<path class="st0" d="M411.2-106.1h-2v-7.1c0-0.5,0-0.9-0.1-1.2c-0.1-0.4-0.4-0.7-0.7-1c-0.3-0.3-0.8-0.5-1.5-0.6
			c-0.7-0.1-1.4-0.2-2.2-0.2h-0.6c-1,0-1.9,0.1-2.5,0.2c-0.9,0.2-1.5,0.6-2,1.1c-0.2,0.3-0.4,0.7-0.5,1.1c-0.1,0.5-0.2,1-0.2,1.5
			v6.1H397v-11.7h1.9v2.1c0.3-0.3,0.5-0.6,0.6-0.7c0.2-0.3,0.5-0.5,0.7-0.7c0.4-0.2,0.9-0.4,1.3-0.5c0.5-0.1,1-0.2,1.7-0.2h2.2
			c1,0,1.7,0.1,2.3,0.2c1,0.2,1.8,0.5,2.3,1.1c0.4,0.4,0.7,0.8,0.9,1.3s0.3,0.9,0.3,1.5L411.2-106.1L411.2-106.1z"/>
		<path class="st0" d="M428.2-112c0,1.2-0.1,2.1-0.2,2.6c-0.2,0.9-0.6,1.6-1.2,2.2c-0.5,0.5-1.3,0.8-2.2,1c-0.6,0.1-1.4,0.2-2.3,0.2
			c-0.2,0-0.4,0-0.5,0c-0.1,0-0.2,0-0.2,0h-1.6h-0.7c-0.9,0-1.6,0-2.1-0.1c-0.8-0.1-1.4-0.4-1.9-0.7c-0.8-0.6-1.3-1.2-1.6-2.1
			c-0.2-0.5-0.3-1.3-0.3-2.2v-1c0-1.2,0.1-2.1,0.3-2.6c0.2-0.9,0.7-1.5,1.5-2c0.5-0.3,1.2-0.6,2.2-0.7c0.7-0.1,1.4-0.2,2.1-0.2h2.4
			c1.3,0,2.3,0.1,3.2,0.3s1.5,0.5,1.9,1c0.5,0.5,0.8,1.1,1,1.6c0.1,0.5,0.2,1.1,0.2,1.9L428.2-112L428.2-112z M426.4-111.6v-1.2
			c0-0.6-0.1-1.1-0.3-1.6c-0.1-0.3-0.3-0.7-0.6-0.9c-0.4-0.4-1-0.6-1.8-0.8c-0.5-0.1-1.2-0.1-2.1-0.1h-2.2c-0.8,0-1.4,0.1-1.9,0.2
			c-0.5,0.1-0.9,0.3-1.1,0.5c-0.5,0.4-0.9,0.8-1,1.4c-0.1,0.4-0.2,1-0.2,1.7v0.7c0,0.2,0,0.4,0,0.5c0,0.6,0,1.1,0.1,1.4
			c0.1,0.5,0.4,0.9,0.7,1.3c0.4,0.3,0.9,0.5,1.6,0.6c0.5,0.1,1.1,0.1,2,0.1h2.1c0.2,0,0.3,0,0.4,0c0.7,0,1.3,0,1.6-0.1
			c0.6-0.1,1.1-0.3,1.6-0.5c0.4-0.3,0.7-0.8,0.9-1.5C426.4-110.2,426.4-110.8,426.4-111.6z"/>
		<path class="st0" d="M432.9-106.1h-1.8v-16.3h1.8V-106.1z"/>
		<path class="st0" d="M450.4-112c0,1.2-0.1,2.1-0.2,2.6c-0.2,0.9-0.6,1.6-1.2,2.2c-0.5,0.5-1.3,0.8-2.2,1c-0.6,0.1-1.4,0.2-2.3,0.2
			c-0.2,0-0.4,0-0.5,0c-0.1,0-0.2,0-0.2,0h-1.6h-0.7c-0.9,0-1.6,0-2.1-0.1c-0.8-0.1-1.4-0.4-1.9-0.7c-0.8-0.6-1.3-1.2-1.6-2.1
			c-0.2-0.5-0.3-1.3-0.3-2.2v-1c0-1.2,0.1-2.1,0.3-2.6c0.2-0.9,0.7-1.5,1.5-2c0.5-0.3,1.2-0.6,2.2-0.7c0.7-0.1,1.4-0.2,2.1-0.2h2.4
			c1.3,0,2.3,0.1,3.2,0.3s1.5,0.5,1.9,1c0.5,0.5,0.8,1.1,1,1.6c0.1,0.5,0.2,1.1,0.2,1.9L450.4-112L450.4-112z M448.6-111.6v-1.2
			c0-0.6-0.1-1.1-0.3-1.6c-0.1-0.3-0.3-0.7-0.6-0.9c-0.4-0.4-1-0.6-1.8-0.8c-0.5-0.1-1.2-0.1-2.1-0.1h-2.2c-0.8,0-1.4,0.1-1.9,0.2
			c-0.5,0.1-0.9,0.3-1.1,0.5c-0.5,0.4-0.9,0.8-1,1.4c-0.1,0.4-0.2,1-0.2,1.7v0.7c0,0.2,0,0.4,0,0.5c0,0.6,0,1.1,0.1,1.4
			c0.1,0.5,0.4,0.9,0.7,1.3c0.4,0.3,0.9,0.5,1.6,0.6c0.5,0.1,1.1,0.1,2,0.1h2.1c0.2,0,0.3,0,0.4,0c0.7,0,1.3,0,1.6-0.1
			c0.6-0.1,1.1-0.3,1.6-0.5c0.4-0.3,0.7-0.8,0.9-1.5C448.6-110.2,448.6-110.8,448.6-111.6z"/>
		<path class="st0" d="M467.3-108.2c0,0.2,0,0.4,0,0.7c0,0.2,0,0.4,0,0.7c0,0.7-0.1,1.3-0.2,1.7c-0.1,0.6-0.4,1.1-0.8,1.5
			c-0.6,0.7-1.4,1.1-2.4,1.3c-0.5,0.1-1.3,0.2-2.4,0.2h-2.2c-0.2,0-0.4,0-0.6,0c-1,0-1.8-0.1-2.4-0.2c-1-0.2-1.7-0.5-2.2-0.9
			c-0.3-0.3-0.6-0.6-0.7-1c-0.1-0.3-0.2-0.7-0.2-1v-0.6h1.7v0.5c0,0.2,0,0.4,0.1,0.6c0.1,0.2,0.2,0.3,0.3,0.4
			c0.3,0.2,0.7,0.4,1.2,0.5c0.5,0.1,1.1,0.1,2.1,0.1h2.6c0.1,0,0.2,0,0.3,0c0.7,0,1.3-0.1,1.8-0.2c0.9-0.2,1.5-0.7,1.8-1.2
			c0.1-0.2,0.2-0.4,0.2-0.7c0-0.2,0.1-0.5,0.1-0.7c0-0.2,0-0.4,0-0.6v-1c-0.3,0.3-0.7,0.5-1,0.8c-0.8,0.4-1.7,0.7-2.5,0.7h-3.7
			c-1.1,0-1.9-0.1-2.4-0.2c-0.8-0.2-1.4-0.6-2-1.3c-0.4-0.5-0.7-1.1-0.9-1.6c-0.2-0.6-0.2-1.3-0.2-2.1v-0.7c0-1,0.2-1.9,0.5-2.6
			c0.4-0.8,0.9-1.4,1.7-1.9c0.5-0.3,1.1-0.5,1.8-0.6c0.8-0.1,1.6-0.2,2.6-0.2h1.1c1,0,1.8,0,2.4,0.1c0.6,0.1,1.2,0.3,1.7,0.7
			c0.2,0.1,0.4,0.2,0.4,0.3c0.1,0.1,0.2,0.2,0.4,0.4v-1.3h1.8L467.3-108.2L467.3-108.2z M465.5-111.7v-0.9c0-0.7-0.1-1.2-0.2-1.6
			c-0.2-0.5-0.4-1-0.8-1.4c-0.3-0.3-0.7-0.4-1.2-0.5c-0.5-0.1-1.2-0.1-2-0.1c-0.3,0-0.5,0-0.6,0h-1.8c-0.7,0-1.2,0-1.6,0.1
			c-0.8,0.1-1.3,0.3-1.6,0.5c-0.4,0.3-0.6,0.7-0.8,1.2c-0.1,0.5-0.2,1.1-0.2,1.8v0.6c0,0.8,0.1,1.4,0.2,1.9c0.2,0.6,0.5,1.1,1,1.3
			c0.2,0.1,0.6,0.2,1,0.3c0.4,0.1,0.8,0.1,1,0.1h2.5c0.1,0,0.3,0,0.4,0c0.8,0,1.4,0,1.9-0.2c0.9-0.2,1.6-0.5,2.1-0.9
			c0.3-0.3,0.5-0.6,0.6-1.1C465.5-110.7,465.5-111.1,465.5-111.7z"/>
		<path class="st0" d="M483.8-117.8l-6.3,13c-0.4,0.8-1.1,1.5-1.9,2c-0.4,0.2-0.8,0.4-1.2,0.5c-0.4,0.1-0.9,0.1-1.5,0.1h-1.2v-1.6
			h0.7c0.2,0,0.3,0,0.4,0c0.5,0,0.9,0,1.2-0.1c0.3,0,0.6-0.2,0.8-0.3c0.2-0.1,0.4-0.3,0.5-0.4c0.1-0.1,0.3-0.3,0.4-0.5l0.3-0.6
			l-6.8-12l2.1,0l5.6,10.2l4.7-10.2L483.8-117.8z"/>
	</g>
</g>
<g id="_755931716576_00000164474457569539307100000005345331815321735590_">
	<path d="M132.1-399c-11.5,0-21.1,4.1-28.9,11.5c-7.8,7.8-11.5,17.4-11.5,28.9c0,11.5,3.7,21.1,11.5,28.4
		c7.8,7.8,17.4,11.5,28.9,11.5c11.5,0,21.1-3.7,28.4-11.5c7.8-7.3,11.5-17,11.5-28.4s-3.7-21.1-11.5-28.9
		C153.1-394.9,143.5-399,132.1-399z M107.3-358.7c0-7.3,2.3-13.8,6.9-18.8c4.6-4.6,10.5-7.3,17.9-7.3c6.9,0,12.8,2.8,17.4,7.3
		c5,5,7.3,11.5,7.3,18.8c0,7.3-2.3,13.3-7.3,18.3c-4.6,5-10.5,7.3-17.4,7.3c-7.3,0-13.3-2.3-17.9-7.3
		C109.6-345.4,107.3-351.3,107.3-358.7z"/>
	<path d="M195.3-377.5h-13.8v57.3h13.8v-31.6c0-7.3,6-13.3,13.3-13.3c2.3,0,4.1,0.5,5.5,1.4v-15.6c-8.3,0-14.7,3.2-18.8,8.7
		L195.3-377.5L195.3-377.5z"/>
	<path d="M245.3-379.3c-7.8,0-14.2,3.2-19.7,8.7c-5.5,6-7.8,12.8-7.8,21.5c0,8.7,2.3,16.1,7.8,22c5.5,5.5,11.9,8.3,19.7,8.3
		c6.4,0,12.4-1.8,17.4-6v4.6h13.8v-82.5h-13.8v29.8C257.7-377,251.7-379.3,245.3-379.3z M258.2-360.5c2.8,3.2,4.6,6.9,4.6,11.5
		c0,5-1.8,8.7-4.6,11.9c-3.2,3.2-6.9,4.6-11,4.6c-4.1,0-7.8-1.4-11-4.6c-2.8-3.2-4.1-6.9-4.1-11.9c0-4.6,1.4-8.3,4.1-11.5
		c3.2-3.2,6.9-5,11-5C251.3-365.5,254.9-363.7,258.2-360.5L258.2-360.5z"/>
	<path d="M345.7-344c0-1.8,0.5-3.7,0.5-5c0-8.3-3.2-15.6-8.7-21.5c-6-5.5-12.8-8.7-21.6-8.7c-8.3,0-15.6,3.2-21.5,8.7
		c-5.5,6-8.3,12.8-8.3,21.5c0,8.7,2.7,16.1,8.7,22c6,5.5,13.3,8.3,22,8.3c11.5,0,21.5-5.5,26.6-14.7l-13.3-4.1
		c-3.2,4.1-7.8,6.4-13.3,6.4c-7.8,0-14.7-5-16.5-12.8H345.7z M300.3-354.5c1.8-7.3,8.3-11.9,15.6-11.9c7.3,0,13.8,4.6,16.1,11.9
		H300.3z"/>
	<path d="M368.2-377.5h-13.8v57.3h13.8v-31.6c0-7.3,5.5-13.3,13.3-13.3c1.8,0,3.7,0.5,5.5,1.4v-15.6c-8.7,0-14.7,3.2-18.8,8.7
		L368.2-377.5L368.2-377.5z"/>
	<path d="M408.1-377.5h-13.8v57.3h13.8v-31.6c0-7.3,6-13.3,13.3-13.3c1.8,0,3.7,0.5,5.5,1.4v-15.6c-8.3,0-14.7,3.2-18.8,8.7V-377.5z
		"/>
	<path d="M458.1-379.3c-7.8,0-14.2,3.2-19.7,8.7c-5.5,6-7.8,12.8-7.8,21.5c0,8.7,2.3,16.1,7.8,22c5.5,5.5,11.9,8.3,19.7,8.3
		c6.4,0,12.4-1.8,17.4-6v4.6h13.8v-57.3h-13.8v4.6C470.5-377,464.5-379.3,458.1-379.3z M470.9-360.5c2.8,3.2,4.6,6.9,4.6,11.5
		c0,5-1.8,8.7-4.6,11.9c-3.2,3.2-6.9,4.6-11,4.6c-4.1,0-7.8-1.4-11-4.6c-2.8-3.2-4.6-6.9-4.6-11.9c0-4.6,1.8-8.3,4.6-11.5
		c3.2-3.2,6.9-5,11-5C464-365.5,467.7-363.7,470.9-360.5z"/>
</g>
<path class="st0" d="M-6-435.9c41.7,0,75.2,33.5,75.2,75.2c0,41.7-33.5,75.2-75.2,75.2c-41.7,0-75.2-33.5-75.2-75.2
	c0-11,2.3-21.6,6.9-30.7c-0.5,0.5-0.5,0.9-0.5,1.8c0,34.4,28.4,62.8,62.8,62.8c4.1,0,7.8-0.5,11.5-0.9c15.6-2.8,27.5-16.5,27.5-33
	c0-18.3-14.7-33-33-33c-18.3,0-33,14.7-33,33c0,7.8,2.8,15.1,7.3,21.1c-24.3-6.9-41.7-25.7-42.6-52.3
	C-62.8-417.6-36.2-435.9-6-435.9z"/>
</svg>
