<?xml version="1.0" encoding="utf-8"?>
<!-- Generator: Adobe Illustrator 25.2.3, SVG Export Plug-In . SVG Version: 6.00 Build 0)  -->
<svg version="1.1" id="Layer_1" xmlns="http://www.w3.org/2000/svg" xmlns:xlink="http://www.w3.org/1999/xlink" x="0px" y="0px"
	 viewBox="0 0 2048 2048" style="enable-background:new 0 0 2048 2048;" xml:space="preserve">
<style type="text/css">
	.st0{fill-rule:evenodd;clip-rule:evenodd;fill:#959595;}
	.st1{fill-rule:evenodd;clip-rule:evenodd;fill:#A5A5A6;}
	.st2{fill-rule:evenodd;clip-rule:evenodd;fill:#8F8F90;}
	.st3{fill-rule:evenodd;clip-rule:evenodd;fill:#C4C4C4;}
	.st4{fill-rule:evenodd;clip-rule:evenodd;fill:#DCDCDC;}
	.st5{fill:none;}
	.st6{fill:#C4C4C4;}
</style>
<g id="Layer_x0020_1">
	<g id="_576357880">
		<path id="_576359344" class="st0" d="M1024.6,1736.8l757.2-265.3c6.4-2.6,10.2-8.8,10.2-15.5V619.8c-1.7,0.9-3.4,1.7-5.3,2.4
			l-0.1-0.1c-491.6,172.7-363.1,127.5-762.1,267.7L1024.6,1736.8L1024.6,1736.8z"/>
		<path id="_576359368" class="st1" d="M266.2,1471.4l758.5,265.2V890l-760.6-267c-2.9-0.7-5.6-1.8-8.2-3.3v836.1
			C256,1462.6,259.8,1468.9,266.2,1471.4L266.2,1471.4z"/>
		<polygon id="_576358504" class="st2" points="256,620.7 1024,351.3 1792,620.7 1024,890 		"/>
		<polygon id="_576357976" class="st3" points="598.5,500.6 760.7,443.7 1512.8,718.6 1350.6,775.4 		"/>
		<polygon id="_576358528" class="st4" points="1351.5,775.1 1355.2,988.7 1374.6,953.3 1387,980.2 1407,943.8 1419.4,970.8 
			1439.4,934.3 1451.8,961.3 1471.8,924.9 1484.1,951.8 1504.1,915.4 1516.5,942.4 1516.9,941.7 1516.7,907.9 1512.9,718.5 
			1512.8,718.6 		"/>
	</g>
</g>
<rect class="st5" width="2048" height="2048"/>
<g>
	<path class="st6" d="M437,1247l-0.1-66L317,1131.9l0-21.7l114.4-107.8l37.6,15.4l0.3,150.9l35.7,14.6l0.1,25.6l-35.1-14.3l0.1,66
		L437,1247z M436.4,1155.1c0.2-26.8-1-93,0.9-118.7l-1.2-0.5c-12.8,22.8-65.3,66.3-84.2,83.9l0,0.7L436.4,1155.1z"/>
	<path class="st6" d="M703.2,1232.2c0.2,82.5-32.2,114.8-89.3,91.5c-89.8-13.1-136.7-299.9,3.8-249.2
		C672,1096.6,703,1154.9,703.2,1232.2z M563.3,1178.7c0.1,63.1,20.8,107.4,52.5,120.4c82.9,30,58.1-194.2,0-200
		C585.3,1086.5,563.1,1112.5,563.3,1178.7z"/>
	<path class="st6" d="M843,1413.4l-0.1-66L723,1298.3l0-21.4l115.2-108.5l37.8,15.5l0.3,151.2l35.7,14.6l0.1,25.8l-36.1-14.8
		l0.1,66.2L843,1413.4z M843.4,1321.6c0.2-26.8-1-93,0.9-118.7l-1.2-0.5c-12.8,22.8-65.3,66.3-84.2,83.9l0,0.7L843.4,1321.6z"/>
</g>
</svg>
