<?xml version="1.0" encoding="utf-8"?>
<!-- Generator: Adobe Illustrator 16.0.0, SVG Export Plug-In . SVG Version: 6.00 Build 0)  -->
<!DOCTYPE svg PUBLIC "-//W3C//DTD SVG 1.0//EN" "http://www.w3.org/TR/2001/REC-SVG-20010904/DTD/svg10.dtd">
<svg version="1.0" id="Layer_1" xmlns="http://www.w3.org/2000/svg" xmlns:xlink="http://www.w3.org/1999/xlink" x="0px" y="0px"
	 width="100px" height="100px" viewBox="0 0 100 100" enable-background="new 0 0 100 100" xml:space="preserve">
<circle cx="50" cy="36.667" r="6.667"/>
<path d="M70,70c0-3.682-2.985-6.667-6.667-6.667H36.667C32.985,63.333,30,66.318,30,70v14.606C35.889,88.015,42.705,90,50,90
	s14.111-1.985,20-5.397V70z"/>
<path d="M50,10c-22.093,0-40,17.91-40,40c0,11.833,5.169,22.432,13.333,29.756V70c0-7.363,5.971-13.333,13.334-13.333h26.666
	c7.363,0,13.334,5.973,13.334,13.333v9.753C84.831,72.429,90,61.829,90,50C90,27.91,72.09,10,50,10z M50,50
	c-7.363,0-13.333-5.97-13.333-13.333S42.637,23.333,50,23.333s13.333,5.97,13.333,13.333S57.363,50,50,50z"/>
</svg>
